# xmcd
#
# Track frame offsets:
#	150
#	8179
#	17216
#	27963
#	37745
#	48821
#	60152
#	71899
#	87997
#	98137
#	107513
#	117784
#	126849
#	135899
#	145690
#	160162
#
# Disc length: 2321 seconds
#
# Revision: 0
# Processed by: cddbd v1.5.2PL0 Copyright (c) Steve Scherf et al.
# Submitted via: EZCDAudioConverter 1.3.4.1
#
DISCID=bf090f10
DTITLE=Damon - Song Of A Gypsy 2/2
DYEAR=1900
DGENRE=
TTITLE0=The Lonely Surfer
TTITLE1=Don't Cry
TTITLE2=Bowlin' Alley Jane
TTITLE3=Don't Cry Davy
TTITLE4=A Face In The Crowd
TTITLE5=I Lie
TTITLE6=Cry
TTITLE7=I've Got My Pride
TTITLE8=Lovin' Man
TTITLE9=They Call Me A Fool
TTITLE10=The Battle Hymn (Of The Republic)
TTITLE11=Everything Is Alright
TTITLE12=The Little White Cloud That Cried
TTITLE13=I Wonder Why
TTITLE14=Seems Like I Traveled
TTITLE15=Dirty Daddy Blues
EXTD=
EXTT0=
EXTT1=
EXTT2=
EXTT3=
EXTT4=
EXTT5=
EXTT6=
EXTT7=
EXTT8=
EXTT9=
EXTT10=
EXTT11=
EXTT12=
EXTT13=
EXTT14=
EXTT15=
PLAYORDER=
